<?xml version="1.0" encoding="UTF-8"?>
<svg width="192px" height="192px" viewBox="0 0 192 192" version="1.1"
    xmlns="http://www.w3.org/2000/svg">
    <g stroke="none" stroke-width="1" fill="none" fill-rule="evenodd">
        <g>
            <circle cx="96" cy="96" r="96"></circle>
            <circle fill="#F44336" cx="96" cy="96" r="88"></circle>
            <g transform="translate(56, 39)" fill="#FFFFFF" fill-rule="nonzero">
                <path
                    d="M26.6666667,114 C19.3333333,114 13.0555556,111.519444 7.83333333,106.558333 C2.61111111,101.597222 0,95.6333333 0,88.6666667 C0,81.7 2.61111111,75.7361111 7.83333333,70.775 C13.0555556,65.8138889 19.3333333,63.3333333 26.6666667,63.3333333 C29.2222222,63.3333333 31.5833333,63.6236111 33.75,64.2041667 C35.9166667,64.7847222 38,65.6555556 40,66.8166667 L40,0 L80,0 L80,25.3333333 L53.3333333,25.3333333 L53.3333333,88.6666667 C53.3333333,95.6333333 50.7222222,101.597222 45.5,106.558333 C40.2777778,111.519444 34,114 26.6666667,114 Z"></path>
            </g>
        </g>
    </g>
</svg>